<svg height="72.4" viewBox="0 0 199.26 72.4" width="199.26" xmlns="http://www.w3.org/2000/svg"><g fill-rule="evenodd"><path d="m99.05 15.49c54.19 0 98.13 12.54 98.13 28s-43.95 28-98.13 28-98.13-12.54-98.13-28 43.95-28 98.13-28" fill="#fff"/><path d="m197.88 41.89-.42-1.57-.68-1.53-.93-1.48-1.16-1.44-1.38-1.39-1.6-1.35-1.81-1.31-2.01-1.27-2.21-1.23-2.4-1.19-2.59-1.15-2.76-1.11-2.94-1.07-3.11-1.03-3.27-.98-3.43-.93-3.58-.89-3.73-.83-3.86-.79-4-.73-4.12-.68-4.25-.62-4.36-.56-4.47-.5-4.57-.45-4.67-.38-4.76-.31-4.84-.25-4.92-.18-5-.11-5.06-.04-5.06.04-4.99.11-4.92.18-4.84.25-4.76.31-4.67.38-4.57.45-4.47.5-4.36.56-4.24.62-4.13.68-4 .73-3.86.79-3.73.83-3.58.89-3.43.93-3.27.98-3.11 1.03-2.94 1.07-2.76 1.11-2.59 1.15-2.4 1.19-2.2 1.23-2.01 1.27-1.81 1.31-1.6 1.35-1.38 1.39-1.16 1.44-.93 1.48-.68 1.53-.42 1.57-.14 1.6.14 1.6.42 1.57.68 1.52.93 1.48 1.16 1.43 1.38 1.39 1.6 1.35 1.81 1.31 2.01 1.27 2.2 1.23 2.4 1.19 2.59 1.15 2.76 1.11 2.94 1.07 3.11 1.02 3.27.98 3.43.93 3.58.89 3.73.83 3.86.78 4 .73 4.13.68 4.24.62 4.36.57 4.47.5 4.57.45 4.67.38 4.76.31 4.84.25 4.92.18 4.99.11 5.06.04 5.06-.04 5-.11 4.92-.18 4.84-.25 4.76-.31 4.67-.38 4.57-.45 4.47-.5 4.36-.57 4.25-.62 4.12-.68 4-.73 3.86-.78 3.73-.83 3.58-.89 3.43-.93 3.27-.98 3.11-1.02 2.94-1.07 2.76-1.11 2.59-1.15 2.4-1.19 2.21-1.23 2.01-1.27 1.81-1.31 1.6-1.35 1.38-1.39 1.16-1.43.93-1.48.68-1.52.42-1.57.14-1.6zm-103.91 28.65-4.97-.11-4.9-.18-4.82-.25-4.73-.31-4.64-.38-4.54-.44-4.44-.5-4.33-.56-4.22-.62-4.09-.67-3.96-.73-3.83-.78-3.69-.83-3.54-.87-3.39-.92-3.22-.96-3.06-1.01-2.88-1.05-2.71-1.09-2.52-1.12-2.33-1.16-2.13-1.18-1.92-1.21-1.71-1.24-1.49-1.25-1.26-1.27-1.03-1.27-.8-1.28-.57-1.28-.34-1.28-.11-1.28.11-1.28.34-1.28.57-1.28.8-1.28 1.03-1.27 1.26-1.27 1.49-1.25 1.71-1.24 1.92-1.21 2.13-1.18 2.33-1.16 2.52-1.12 2.71-1.09 2.88-1.05 3.06-1.01 3.22-.97 3.39-.92 3.54-.87 3.69-.83 3.83-.77 3.96-.73 4.09-.67 4.22-.62 4.33-.56 4.44-.5 4.54-.44 4.64-.38 4.73-.31 4.82-.24 4.9-.18 4.97-.11 5.04-.03v54.17l-5.04-.03z" fill="#231f20"/><path d="m99 .83c7.33 0 13.28 5.98 13.28 13.35s-5.94 13.35-13.28 13.35-13.28-5.98-13.28-13.35 5.95-13.35 13.28-13.35" fill="#fff"/></g><path d="m113.13 13.44-.06-.71-.09-.71-.12-.69-.16-.68-.19-.67-.22-.66-.25-.64-.28-.63-.31-.61-.34-.59-.37-.57-.39-.56-.42-.54-.44-.51-.47-.49-.49-.47-.51-.45-.54-.42-.55-.4-.57-.37-.59-.34-.61-.32-.63-.28-.64-.26-.66-.22-.67-.19-.69-.16-.7-.12-.71-.09-.72-.06-.73-.02-.73.02-.72.06-.71.09-.7.12-.69.16-.67.19-.66.22-.64.26-.63.28-.61.32-.59.34-.57.37-.56.4-.53.42-.51.45-.49.47-.47.49-.44.51-.42.54-.39.56-.37.57-.34.59-.31.61-.28.63-.25.64-.22.66-.19.67-.16.68-.12.69-.09.71-.05.71-.02.73.02.73.05.72.09.71.12.69.16.68.19.67.22.66.25.64.28.62.31.61.34.59.37.57.39.56.42.54.44.51.47.49.49.47.51.45.53.42.56.4.57.37.59.34.61.31.63.29.64.25.66.22.67.19.69.16.7.12.71.09.72.05.73.02.73-.02.72-.05.71-.09.7-.12.69-.16.67-.19.66-.22.64-.25.63-.29.61-.31.59-.34.57-.37.55-.4.54-.42.51-.45.49-.47.47-.49.44-.51.42-.54.39-.56.37-.57.34-.59.31-.61.28-.62.25-.64.22-.66.19-.67.16-.68.12-.69.09-.71.06-.72.02-.73zm-1.75 1.37-.05.64-.08.63-.11.62-.14.61-.17.6-.2.58-.22.57-.25.55-.28.55-.3.52-.33.51-.35.49-.37.47-.39.46-.41.43-.43.41-.45.4-.47.37-.49.35-.51.33-.52.3-.53.28-.55.25-.56.22-.57.2-.59.17-.6.13-.61.11-.62.08-.63.05-.64.02-.64-.02-.63-.05-.62-.08-.61-.11-.6-.13-.59-.17-.57-.2-.56-.22-.55-.25-.54-.28-.52-.3-.5-.33-.49-.35-.47-.37-.45-.4-.43-.41-.41-.43-.39-.46-.37-.47-.34-.49-.33-.51-.3-.52-.28-.55-.25-.55-.22-.57-.2-.58-.17-.6-.14-.61-.11-.62-.08-.63-.05-.64v-.65s0-.65 0-.65l.05-.64.08-.63.11-.62.14-.61.17-.6.2-.58.22-.57.25-.56.28-.54.3-.52.33-.51.34-.49.37-.47.39-.46.41-.43.43-.41.45-.39.47-.37.49-.35.5-.33.52-.3.54-.28.55-.25.56-.22.57-.2.59-.17.6-.14.61-.11.62-.08.63-.05h.64s.64 0 .64 0l.63.05.62.08.61.11.6.14.59.17.57.2.56.22.55.25.53.28.52.3.51.33.49.35.47.37.45.39.43.41.41.43.39.46.37.47.35.49.33.51.3.52.28.54.25.56.22.57.2.58.17.6.14.61.11.62.08.63.05.64v.65s0 .65 0 .65z" fill="#231f20"/><path d="m87.65 49.45v-7.55h-2.24v-3.67h8.51v3.67h-2.24v7.55zm-16.05 0v-11.21h3.95l3.48 5.87c-.05-.26-.08-.55-.1-.87s-.02-.73-.02-1.24v-3.76h3.88v11.21h-3.98l-3.45-5.82c.04.25.07.52.09.81s.03.61.03.97v4.04h-3.89zm-10.56 0v-11.21h7.5v3.04h-3.55v1.08h3.22v2.87h-3.22v1.18h3.64v3.04zm-13.75 0v-11.21h3.26c1.04 0 1.92.06 2.65.17.73.12 1.33.29 1.79.53.97.51 1.71 1.19 2.23 2.03s.78 1.8.78 2.88-.26 2.03-.77 2.87c-.52.83-1.26 1.51-2.24 2.03-.47.24-1.08.43-1.81.54s-1.71.17-2.93.17h-2.96zm4-3.43c.91 0 1.57-.18 1.99-.53s.63-.89.63-1.64-.2-1.27-.6-1.63-1.02-.54-1.85-.54h-.17zm-17.73-1.71v-6.08h4.03v6.11c0 .71.08 1.2.25 1.47s.45.4.87.4.69-.14.86-.41c.18-.28.26-.76.26-1.46v-6.11h4.03v6.08c0 .79-.05 1.45-.16 1.97s-.27.95-.5 1.29c-.45.7-1.06 1.24-1.84 1.61-.78.38-1.66.56-2.66.56s-1.89-.19-2.67-.56-1.39-.91-1.84-1.61c-.22-.34-.39-.77-.49-1.28s-.15-1.17-.15-1.98zm-8.8 5.13v-7.55h-2.24v-3.67h8.52v3.67h-2.24v7.55h-4.03zm-13.39-.96 1.29-3.14c.58.4 1.09.7 1.54.88.45.19.88.28 1.27.28.28 0 .49-.05.65-.16s.24-.25.24-.43c0-.31-.4-.55-1.19-.71-.26-.06-.45-.1-.6-.13-.84-.21-1.48-.57-1.92-1.09s-.67-1.17-.67-1.94c0-1.21.43-2.18 1.29-2.94.86-.75 1.99-1.13 3.39-1.13.64 0 1.28.08 1.9.25s1.25.42 1.88.77l-1.23 2.93c-.39-.28-.78-.5-1.17-.65s-.77-.23-1.14-.23c-.28 0-.5.05-.65.14s-.23.23-.23.39c0 .32.56.6 1.68.83.18.04.32.07.41.09.77.17 1.38.53 1.82 1.06.45.54.67 1.19.67 1.94 0 1.24-.45 2.25-1.34 3.04-.9.79-2.06 1.18-3.5 1.18-.73 0-1.47-.1-2.2-.32-.74-.21-1.47-.52-2.21-.94z" fill="#231f20"/><path d="m167.83 48.49 1.29-3.14c.58.4 1.09.7 1.54.88.45.19.88.28 1.27.28.28 0 .49-.05.65-.16s.24-.25.24-.43c0-.31-.39-.55-1.19-.71-.26-.06-.45-.1-.6-.13-.84-.21-1.48-.57-1.92-1.09-.45-.52-.67-1.17-.67-1.94 0-1.21.43-2.18 1.29-2.94.86-.75 2-1.13 3.39-1.13.64 0 1.28.08 1.9.25s1.25.42 1.89.77l-1.23 2.93c-.39-.28-.78-.5-1.17-.65s-.77-.23-1.14-.23c-.28 0-.49.05-.65.14s-.23.23-.23.39c0 .32.56.6 1.68.83.18.04.32.07.42.09.77.17 1.38.53 1.82 1.06.45.54.67 1.19.67 1.94 0 1.24-.45 2.25-1.34 3.04s-2.06 1.18-3.5 1.18c-.74 0-1.47-.1-2.2-.32-.74-.21-1.47-.52-2.21-.94m-12.31.96v-11.21h3.95v4.78l2.56-4.78h4.56l-3.39 5.52 3.86 5.69h-4.88l-2.72-4.69v4.69h-3.95zm-12.58 0v-11.21h5.07c1.47 0 2.59.32 3.37.97s1.17 1.58 1.17 2.8c0 .8-.19 1.45-.58 1.97s-.92.82-1.58.9l2.99 4.57h-4.52l-1.96-3.7v3.7h-3.95zm3.95-8.33v2.19h.63c.38 0 .68-.1.88-.28.21-.19.31-.45.31-.8s-.1-.63-.31-.82-.5-.29-.88-.29zm-6.99 2.74c0 .82-.15 1.59-.44 2.29-.29.71-.72 1.34-1.28 1.9-.57.55-1.21.96-1.94 1.26-.73.29-1.51.44-2.34.44s-1.62-.15-2.35-.44-1.38-.72-1.95-1.27c-.55-.54-.98-1.17-1.26-1.87-.29-.71-.43-1.47-.43-2.31s.14-1.6.43-2.31c.28-.71.71-1.34 1.26-1.88.56-.55 1.21-.97 1.94-1.26s1.52-.43 2.36-.43 1.63.14 2.36.43 1.38.71 1.95 1.26c.55.55.97 1.18 1.26 1.88.29.71.43 1.48.43 2.31zm-6 2.12c.57 0 1.02-.2 1.37-.58.35-.39.52-.9.52-1.54s-.17-1.16-.52-1.55c-.34-.39-.8-.59-1.37-.59s-1.03.2-1.37.59c-.35.39-.52.91-.52 1.55s.17 1.15.52 1.54c.35.38.81.58 1.37.58zm-15.73-2.21c-.02.37-.1.9-.25 1.59-.03.11-.04.2-.06.27l-.85 3.82h-3.51l-3.28-11.21h4.05l.88 4.94c.08.44.14.83.17 1.19.04.36.07.7.08 1.01h.09c0-.44.09-1.03.24-1.76.01-.07.02-.12.03-.16l1.07-5.23h2.84l1.06 5.24s.02.08.03.15c.15.73.22 1.32.24 1.76h.1c0-.32.03-.65.07-1.01s.1-.75.18-1.19l.88-4.94h4.05l-3.28 11.21h-3.52l-.84-3.82c-.02-.06-.04-.16-.06-.27-.16-.69-.24-1.21-.26-1.58h-.15z" fill="#fff"/><path d="m98.99 4.18c.53.11.81.49 1.04.85.24.36.33.47.47.92.13.45.4 2.14.36 2.83-.03.69-.13 1.07-.2 1.37s-.63 1.42-.7 1.59-.23.84.1 1.27.93.92 1.4 1.28 1.5.88 1.5.88v.64s-4.03 0-4.03 0h.08-4.03v-.64s1.03-.52 1.5-.88 1.07-.84 1.4-1.27.17-1.11.1-1.27c-.07-.17-.63-1.3-.7-1.6s-.16-.67-.2-1.37c-.03-.69.24-2.38.37-2.83s.23-.56.47-.92c.23-.35.53-.73 1.07-.84z" fill="#231f20"/><path d="m98.92 17.97 4.06.01v-1.93h-4.06.08-4.06v1.92h4.06z" fill="#e21936"/><path d="m99.48 6.63c0 .23-.2.42-.44.42s-.44-.19-.44-.42.2-.42.44-.42.44.19.44.42z" fill="#fff"/><path d="m104.39 23.15c-.56-1.14-1.02-2.12-1.36-4.97h-8.12c.17 1.93.42 3.2 1.11 4.95 2.74.02 5.62 0 8.37.02z" fill="#231f20" fill-rule="evenodd"/><path d="m189.17 23.15v-.78h4.17v.78h-1.64v4.37h-.9v-4.37z" fill="#231f20"/><path d="m193.92 27.52v-5.15h1.27l1.42 4.03h.01l1.38-4.03h1.25v5.15h-.86v-3.97h-.01l-1.43 3.97h-.74l-1.43-3.97h-.01v3.97h-.86z" fill="#231f20"/></svg>