<?xml version="1.0" encoding="UTF-8"?>
<svg xmlns="http://www.w3.org/2000/svg" width="202.749" height="92" viewBox="0 0 202.749 92">
  <g id="Group_680" data-name="Group 680" transform="translate(-464.94 -136.14)">
    <g id="Group_669" data-name="Group 669" transform="translate(516.432 216.488)">
      <path id="Path_152" data-name="Path 152" d="M507.19,199.074v1.852h.621a1.4,1.4,0,0,0,.874-.236.826.826,0,0,0,.3-.683.836.836,0,0,0-.311-.688,1.385,1.385,0,0,0-.866-.245Zm-4.015,8.024v-11.11h4.774a5.709,5.709,0,0,1,3.683.974,3.775,3.775,0,0,1,1.165,3.075,3.613,3.613,0,0,1-1.046,2.877,5.031,5.031,0,0,1-3.325.906h-1.252V207.1Z" transform="translate(-503.175 -195.738)" fill="#fff"></path>
      <path id="Path_153" data-name="Path 153" d="M511.312,207.1l3.959-11.11h4.45l3.885,11.11h-4.295l-.357-1.4h-3.013l-.342,1.4Zm5.3-4.037h1.661l-.339-1.261c-.17-.638-.281-1.129-.341-1.469a7.21,7.21,0,0,1-.116-.972h-.067a8.187,8.187,0,0,1-.113.972c-.065.341-.176.831-.342,1.469Z" transform="translate(-500.354 -195.738)" fill="#fff"></path>
      <rect id="Rectangle_250" data-name="Rectangle 250" width="4.059" height="11.11" transform="translate(27.322 0.249)" fill="#fff"></rect>
      <path id="Path_154" data-name="Path 154" d="M530.378,207.1v-11.11H534.3l3.454,5.812a6.014,6.014,0,0,1-.1-.856c-.02-.315-.028-.725-.028-1.231v-3.725h3.849V207.1h-3.947l-3.414-5.768c.04.246.07.516.089.8s.031.606.031.96V207.1Z" transform="translate(-493.743 -195.738)" fill="#fff"></path>
      <path id="Path_155" data-name="Path 155" d="M543.773,207.1v-7.475h-2.224v-3.635h8.439v3.635h-2.223V207.1Z" transform="translate(-489.87 -195.738)" fill="#fff"></path>
      <rect id="Rectangle_251" data-name="Rectangle 251" width="4.058" height="11.11" transform="translate(64.408 0.249)" fill="#fff"></rect>
      <path id="Path_156" data-name="Path 156" d="M557.64,207.1v-11.11h3.914l3.453,5.812a8.428,8.428,0,0,1-.1-.856c-.016-.315-.024-.725-.024-1.231v-3.725h3.846V207.1h-3.947l-3.413-5.768c.038.246.069.516.092.8s.03.606.03.96V207.1Z" transform="translate(-484.291 -195.738)" fill="#fff"></path>
      <path id="Path_157" data-name="Path 157" d="M575.857,203.183h-1.743v-2.61h6.137c.013.228.022.395.026.505s.009.213.009.3a7.854,7.854,0,0,1-.183,1.745,5.038,5.038,0,0,1-.536,1.394,5.849,5.849,0,0,1-2.188,2.18,6.1,6.1,0,0,1-3.053.755,6.346,6.346,0,0,1-2.338-.42,5.556,5.556,0,0,1-1.919-1.242,5.619,5.619,0,0,1-1.255-1.872,6.166,6.166,0,0,1-.421-2.292,6.054,6.054,0,0,1,.429-2.3,5.434,5.434,0,0,1,1.251-1.863,5.611,5.611,0,0,1,1.907-1.236,6.394,6.394,0,0,1,2.346-.424,6.078,6.078,0,0,1,3.037.746,5.8,5.8,0,0,1,2.17,2.19l-3.559,1.321a1.959,1.959,0,0,0-.673-.694,1.779,1.779,0,0,0-.9-.228,1.685,1.685,0,0,0-1.414.677,3.382,3.382,0,0,0,0,3.642,1.833,1.833,0,0,0,1.5.645,1.643,1.643,0,0,0,.937-.242.986.986,0,0,0,.434-.676" transform="translate(-480.563 -195.802)" fill="#fff"></path>
    </g>
    <path id="Path_158" data-name="Path 158" d="M566.116,147.92c55.481,0,100.475,12.836,100.475,28.664S621.6,205.249,566.116,205.249s-100.475-12.836-100.475-28.665,45-28.664,100.475-28.664" transform="translate(0.243 4.084)" fill="#fff" fill-rule="evenodd"></path>
    <path id="Path_159" data-name="Path 159" d="M566.315,147.226v1.867l-5.158.034-5.085.112-5.012.185-4.934.25-4.846.321-4.753.385-4.651.448-4.547.512-4.435.572-4.316.633-4.19.687-4.058.742-3.923.793-3.773.85-3.628.894-3.466.945-3.3.988-3.135,1.032-2.953,1.072-2.772,1.112-2.576,1.147-2.385,1.184-2.178,1.211-1.966,1.24-1.747,1.265L471,168.99l-1.292,1.3-1.057,1.3-.818,1.31-.584,1.306-.345,1.306-.117,1.31h-1.85l.144-1.638.432-1.605.695-1.564.948-1.512,1.185-1.471,1.415-1.422,1.638-1.38,1.85-1.337,2.059-1.3,2.257-1.259,2.455-1.221,2.65-1.176L485.5,158.8l3.01-1.092,3.18-1.049,3.352-1,3.51-.951,3.663-.91,3.817-.852,3.953-.805,4.1-.749,4.223-.694,4.345-.634,4.466-.578,4.573-.51,4.684-.457,4.781-.385,4.872-.322,4.956-.252,5.042-.182,5.115-.112Zm-101.375,29.6h1.85l.117,1.309.345,1.309.584,1.308.818,1.309,1.057,1.3,1.292,1.3,1.523,1.283,1.747,1.266,1.966,1.242,2.178,1.209,2.385,1.184,2.576,1.146,2.772,1.115,2.953,1.071,3.135,1.032,3.3.988,3.466.947,3.628.894,3.773.847,3.923.793,4.058.745,4.19.685,4.316.633,4.435.571,4.547.512,4.651.446,4.753.389,4.846.321,4.934.252,5.012.183,5.085.11,5.158.034v1.867l-5.18-.04-5.115-.11-5.042-.182-4.956-.253-4.872-.319-4.781-.385-4.684-.458-4.573-.512-4.466-.579-4.345-.633-4.223-.694-4.1-.749-3.953-.8-3.817-.854-3.663-.906-3.51-.955-3.352-1-3.18-1.046-3.01-1.094-2.829-1.137-2.65-1.174-2.455-1.22-2.257-1.262-2.059-1.3-1.85-1.339-1.638-1.378-1.415-1.425-1.185-1.469-.948-1.516-.695-1.56-.432-1.605Zm101.375,29.6v-1.867l5.155-.034,5.086-.11,5.013-.183,4.937-.252,4.844-.321,4.751-.389,4.654-.446,4.547-.512,4.433-.571,4.316-.633,4.191-.685,4.058-.745,3.923-.793,3.774-.847,3.624-.894,3.469-.947,3.3-.988,3.137-1.032,2.952-1.071,2.773-1.115,2.579-1.146,2.38-1.184,2.18-1.209,1.965-1.242,1.744-1.266,1.525-1.283,1.293-1.3,1.057-1.3.819-1.309.583-1.308.347-1.309.115-1.309h1.85l-.146,1.64-.43,1.605-.694,1.56-.948,1.516-1.188,1.469-1.415,1.425-1.638,1.378-1.85,1.339-2.058,1.3-2.258,1.262-2.454,1.22-2.65,1.174-2.829,1.137-3.013,1.094-3.18,1.046-3.348,1-3.514.955-3.663.906-3.815.854-3.951.8-4.1.749-4.223.694-4.346.633-4.466.579-4.573.512-4.682.458-4.782.385-4.875.319-4.956.253-5.039.182-5.116.11Zm101.375-29.6h-1.85l-.115-1.31-.347-1.306-.583-1.306-.819-1.31-1.057-1.3-1.293-1.3-1.525-1.283-1.744-1.265-1.965-1.24-2.18-1.211-2.38-1.184-2.579-1.147-2.773-1.112-2.952-1.072-3.137-1.032-3.3-.988-3.469-.945L630,155.616l-3.774-.85-3.923-.793-4.058-.742-4.191-.687-4.316-.633-4.433-.572-4.547-.512-4.654-.448-4.751-.385-4.844-.321-4.937-.25-5.013-.185-5.086-.112-5.155-.034v-1.867l5.178.04,5.116.112,5.039.182,4.956.252,4.875.322,4.782.385,4.682.457,4.573.51,4.466.578,4.346.634,4.223.694,4.1.749,3.951.805,3.815.852,3.663.91,3.514.951,3.348,1,3.18,1.049,3.013,1.092,2.829,1.137,2.65,1.176,2.454,1.221,2.258,1.259,2.058,1.3,1.85,1.337,1.638,1.38,1.415,1.422,1.188,1.471.948,1.512.694,1.564.43,1.605Z" transform="translate(0 3.844)" fill="#1a1818"></path>
    <path id="Path_160" data-name="Path 160" d="M540.216,147.922c54.787,0,100.326,12.833,100.326,28.661S595,205.245,540.216,205.245V147.922" transform="translate(26.1 4.085)" fill="#1a1818" fill-rule="evenodd"></path>
    <g id="Group_670" data-name="Group 670" transform="translate(551.81 136.14)">
      <path id="Path_161" data-name="Path 161" d="M543.706,136.767a13.666,13.666,0,1,1-13.594,13.665,13.631,13.631,0,0,1,13.594-13.665" transform="translate(-529.214 -135.923)" fill="#fff" fill-rule="evenodd"></path>
      <path id="Path_162" data-name="Path 162" d="M543.937,136.14v1.691l-.655.013-.64.048-.632.081-.625.114-.612.139-.6.171-.585.2-.576.229-.56.253-.548.283-.531.3-.514.335-.5.354-.477.381-.461.4-.444.424-.419.443-.4.469-.378.481-.353.5-.335.521-.3.536-.283.555-.255.568-.23.583-.2.6-.172.611-.14.622-.113.634-.083.645-.05.656-.013.661h-1.8l.02-.745.057-.731.092-.723.127-.711.162-.7.194-.69.225-.671.257-.66.288-.642.318-.621.349-.607.374-.587.4-.571.428-.549.453-.524.482-.506.5-.479.527-.457.547-.434.57-.405.586-.377.607-.353.625-.325.645-.292.658-.261.677-.228.691-.2.7-.168.714-.125.731-.093.738-.058Zm-14.492,14.51h1.8l.013.661.05.656.083.645.113.633.14.624.172.61.2.6.23.582.255.567.283.559.3.535.335.52.353.505.378.482.4.467.419.443.444.422.461.405.477.378.5.354.514.335.531.3.548.283.56.252.576.229.585.2.6.172.612.137.625.116.632.079.64.048.655.015v1.689l-.746-.019-.738-.057-.731-.094-.714-.125-.7-.167-.691-.2-.677-.229-.658-.26-.645-.294-.625-.322-.607-.352-.586-.378-.57-.409-.547-.431-.527-.458-.5-.481-.482-.5-.453-.525-.428-.549-.4-.571-.374-.587-.349-.606-.318-.625-.288-.64-.257-.66-.225-.673-.194-.69-.162-.7-.127-.71-.092-.723-.057-.734Zm14.492,14.508v-1.689l.652-.015.644-.048.63-.079.622-.116.614-.137.6-.172.585-.2.575-.229.559-.252.548-.283.529-.3.518-.335.5-.354.478-.378.461-.405.444-.422.419-.443.4-.467.378-.482.356-.505.333-.52.3-.535.284-.559.256-.567.229-.582.2-.6.172-.61.141-.624.112-.633.083-.645.05-.656.013-.661h1.8l-.02.743-.058.734-.089.723-.128.71-.159.7-.2.69-.224.673-.259.66-.288.64-.319.625-.349.606-.374.587-.4.571-.428.549-.454.525-.482.5-.5.481-.525.458-.549.431-.568.409-.586.378-.609.352-.624.322-.644.294-.66.26-.677.229-.691.2-.7.167-.714.125-.728.094-.741.057Zm14.492-14.508h-1.8l-.013-.661-.05-.656-.083-.645-.112-.634-.141-.622-.172-.611-.2-.6-.229-.583-.256-.568-.284-.555-.3-.536-.333-.521-.356-.5-.378-.481-.4-.469-.419-.443-.444-.424-.461-.4-.478-.381-.5-.354-.518-.335-.529-.3-.548-.283-.559-.253-.575-.229-.585-.2-.6-.171-.614-.139-.622-.114-.63-.081-.644-.048-.652-.013V136.14l.745.02.741.058.728.093.714.125.7.168.691.2.677.228.66.261.644.292.624.325.609.353.586.377.568.405.549.434.525.457.5.479.482.506.454.524.428.549.4.571.374.587.349.607.319.621.288.642.259.66.224.671.2.69.159.7.128.711.089.723.058.731Z" transform="translate(-529.445 -136.14)" fill="#1a1818"></path>
    </g>
    <path id="Path_163" data-name="Path 163" d="M551.687,176.754v-7.726h-2.3v-3.756h8.717v3.756h-2.3v7.726Zm-16.433,0V165.272H539.3l3.568,6.009a8.338,8.338,0,0,1-.1-.887c-.018-.323-.026-.746-.026-1.273v-3.849h3.975v11.482h-4.075l-3.531-5.963c.042.26.071.535.093.832s.031.624.031.99v4.141Zm-10.816,0V165.272h7.676v3.112h-3.629v1.107h3.293v2.943h-3.293v1.208h3.724v3.112Zm-14.079,0V165.272h3.34a17.906,17.906,0,0,1,2.716.178,6.025,6.025,0,0,1,1.832.545,5.759,5.759,0,0,1,2.288,2.078,5.85,5.85,0,0,1,0,5.882,5.781,5.781,0,0,1-2.291,2.077,6.128,6.128,0,0,1-1.849.551,21,21,0,0,1-3,.171Zm4.093-3.507a3.192,3.192,0,0,0,2.042-.548,2.059,2.059,0,0,0,.642-1.679,2.13,2.13,0,0,0-.615-1.67,2.776,2.776,0,0,0-1.891-.549h-.178ZM496.3,171.5v-6.227h4.125v6.257a3.02,3.02,0,0,0,.26,1.5,1.144,1.144,0,0,0,1.768-.009,2.976,2.976,0,0,0,.268-1.491v-6.257h4.125V171.5a10.388,10.388,0,0,1-.16,2.015,3.743,3.743,0,0,1-.514,1.325,4.489,4.489,0,0,1-1.881,1.646,6.727,6.727,0,0,1-5.449,0,4.484,4.484,0,0,1-1.883-1.646,3.663,3.663,0,0,1-.5-1.312A10.636,10.636,0,0,1,496.3,171.5Zm-9.007,5.255v-7.726H485v-3.756h8.717v3.756h-2.3v7.726Zm-13.71-.98,1.317-3.215a8.449,8.449,0,0,0,1.578.9,3.43,3.43,0,0,0,1.3.288,1.191,1.191,0,0,0,.665-.162.5.5,0,0,0,.245-.438c0-.319-.405-.563-1.216-.727-.263-.059-.466-.1-.611-.131a3.648,3.648,0,0,1-1.97-1.116,2.967,2.967,0,0,1-.682-1.992,3.817,3.817,0,0,1,1.325-3.011,5.089,5.089,0,0,1,3.475-1.16,7.352,7.352,0,0,1,1.945.257,8.938,8.938,0,0,1,1.93.785l-1.255,3a5.061,5.061,0,0,0-1.2-.669,3.239,3.239,0,0,0-1.164-.233,1.266,1.266,0,0,0-.667.145.451.451,0,0,0-.237.4q0,.487,1.721.854c.179.043.322.074.422.1a3.259,3.259,0,0,1,1.865,1.089,3.02,3.02,0,0,1,.683,1.99,3.952,3.952,0,0,1-1.376,3.114,5.221,5.221,0,0,1-3.581,1.211,8.057,8.057,0,0,1-2.256-.325A10.121,10.121,0,0,1,473.582,175.774Z" transform="translate(2.996 10.012)" fill="#1a1818"></path>
    <path id="Path_164" data-name="Path 164" d="M607.716,175.774l1.319-3.215a8.453,8.453,0,0,0,1.58.9,3.422,3.422,0,0,0,1.3.288,1.2,1.2,0,0,0,.668-.162.494.494,0,0,0,.242-.438c0-.319-.4-.563-1.213-.727-.264-.059-.466-.1-.613-.131a3.639,3.639,0,0,1-1.967-1.116,2.953,2.953,0,0,1-.682-1.992,3.819,3.819,0,0,1,1.323-3.011,5.1,5.1,0,0,1,3.476-1.16,7.337,7.337,0,0,1,1.945.257,8.88,8.88,0,0,1,1.93.785l-1.254,3a5.066,5.066,0,0,0-1.2-.669,3.232,3.232,0,0,0-1.163-.233,1.261,1.261,0,0,0-.665.145.45.45,0,0,0-.238.4c0,.325.575.61,1.717.854.185.043.326.074.427.1a3.251,3.251,0,0,1,1.863,1.089,3.012,3.012,0,0,1,.683,1.99,3.948,3.948,0,0,1-1.376,3.114,5.21,5.21,0,0,1-3.58,1.211,8.06,8.06,0,0,1-2.257-.325,10.177,10.177,0,0,1-2.26-.963m-12.6.98V165.272h4.047v4.894l2.617-4.894h4.673l-3.466,5.654,3.953,5.829h-5l-2.781-4.8v4.8Zm-12.876,0V165.272h5.2a5.234,5.234,0,0,1,3.448,1,3.525,3.525,0,0,1,1.193,2.87,3.253,3.253,0,0,1-.6,2.016,2.337,2.337,0,0,1-1.623.924l3.064,4.676H588.29l-2.007-3.788v3.788Zm4.048-8.525v2.244h.645a1.313,1.313,0,0,0,.9-.287,1.05,1.05,0,0,0,.318-.82,1.1,1.1,0,0,0-.318-.844,1.289,1.289,0,0,0-.9-.292Zm-7.152,2.805a6.153,6.153,0,0,1-.447,2.347,5.865,5.865,0,0,1-1.308,1.945,6.089,6.089,0,0,1-1.99,1.286,6.653,6.653,0,0,1-4.8,0,6.035,6.035,0,0,1-1.994-1.3A5.608,5.608,0,0,1,567.3,173.4a6.259,6.259,0,0,1-.438-2.362,6.327,6.327,0,0,1,.438-2.368,5.589,5.589,0,0,1,1.293-1.923,5.933,5.933,0,0,1,1.986-1.286,6.8,6.8,0,0,1,4.829,0,6,6,0,0,1,1.993,1.286,5.819,5.819,0,0,1,1.289,1.931A6.172,6.172,0,0,1,579.132,171.035ZM572.99,173.2a1.8,1.8,0,0,0,1.4-.59,2.272,2.272,0,0,0,.531-1.577,2.3,2.3,0,0,0-.531-1.585,1.936,1.936,0,0,0-2.805,0,2.3,2.3,0,0,0-.532,1.581,2.272,2.272,0,0,0,.532,1.577A1.82,1.82,0,0,0,572.99,173.2Zm-16.1-2.26a10.384,10.384,0,0,1-.259,1.626c-.027.114-.047.206-.062.272l-.866,3.915h-3.6l-3.356-11.482h4.142l.9,5.06c.078.446.141.847.179,1.219s.071.714.081,1.037h.1a10.647,10.647,0,0,1,.241-1.8c.011-.067.022-.12.03-.162l1.092-5.357h2.909l1.089,5.365c.005.032.016.081.032.154a10.905,10.905,0,0,1,.241,1.8h.1c.007-.323.031-.668.074-1.037s.1-.773.18-1.219l.9-5.06h4.143l-3.357,11.482h-3.6l-.859-3.915c-.018-.066-.038-.16-.061-.28a9.841,9.841,0,0,1-.263-1.617Z" transform="translate(29.058 10.012)" fill="#fff"></path>
    <path id="Path_165" data-name="Path 165" d="M541.255,139.317a1.69,1.69,0,0,1,1.065.866,2.719,2.719,0,0,1,.478.94,14.238,14.238,0,0,1,.372,2.9,6.774,6.774,0,0,1-.206,1.4c-.067.307-.648,1.459-.716,1.632a1.506,1.506,0,0,0,.1,1.3,8.446,8.446,0,0,0,1.429,1.306,13.569,13.569,0,0,0,1.534.9v.653l-4.124,0h.085l-4.124,0v-.653a13.853,13.853,0,0,0,1.534-.9,8.352,8.352,0,0,0,1.433-1.3,1.5,1.5,0,0,0,.1-1.3c-.067-.175-.645-1.328-.714-1.635a6.983,6.983,0,0,1-.2-1.4,14.172,14.172,0,0,1,.377-2.9,2.777,2.777,0,0,1,.478-.94,1.747,1.747,0,0,1,1.093-.863Z" transform="translate(25.037 1.102)" fill="#1a1818"></path>
    <path id="Path_166" data-name="Path 166" d="M541.195,150.312l4.157,0v-1.969l-4.157,0h.084l-4.159,0v1.969l4.157,0Z" transform="translate(25.027 4.23)" fill="#d80028"></path>
    <path id="Path_167" data-name="Path 167" d="M540.8,141.292a.454.454,0,1,1-.454-.431A.442.442,0,0,1,540.8,141.292Z" transform="translate(25.989 1.637)" fill="#fff"></path>
    <path id="Path_168" data-name="Path 168" d="M546.806,155.051a12.988,12.988,0,0,1-1.393-5.088H537.1a16.208,16.208,0,0,0,1.139,5.068C541.044,155.051,543.995,155.033,546.806,155.051Z" transform="translate(25.018 4.793)" fill="#1a1818" fill-rule="evenodd"></path>
  </g>
</svg>
