<?xml version="1.0" encoding="UTF-8"?><svg xmlns="http://www.w3.org/2000/svg" width="202.749" height="92" viewBox="0 0 202.749 92"><path d="m101.38,17.37c55.47,0,100.45,12.72,100.45,28.41s-44.98,28.41-100.45,28.41S.93,61.47.93,45.78s44.98-28.41,100.45-28.41" style="fill:#fff; fill-rule:evenodd; stroke-width:0px;"/><path d="m100.26,17.37c55.47,0,101.57,12.72,101.57,28.41s-46.1,28.41-101.57,28.41V17.37" style="fill:#231f20; fill-rule:evenodd; stroke-width:0px;"/><path d="m18.44,51.92h-2.88v-12.34h4.64c1.21,0,2.3,0,3.33.7,1.04.74,1.6,1.8,1.6,3.07,0,1.17-.41,2.36-1.33,3.13-1.06.88-2.19.86-3.51.86h-1.85v4.57Zm1.62-6.82c.68,0,1.26,0,1.76-.54.27-.31.4-.7.4-1.1,0-.49-.2-.99-.59-1.3-.45-.34-1.04-.34-1.58-.34h-1.6v3.27h1.62Z" style="fill:#231f20; stroke-width:0px;"/><path d="m29.59,41.98v2.5h4.68v2.32h-4.68v2.73h5.93v2.39h-8.81v-12.34h8.81v2.39h-5.93Z" style="fill:#231f20; stroke-width:0px;"/><path d="m40.07,51.92h-2.88v-12.34h2.88v12.34Z" style="fill:#231f20; stroke-width:0px;"/><path d="m52.03,51.92h-2.46l-4.73-8.29h-.07v8.29h-2.23v-12.34h3.11l4.12,7.25h.04v-7.25h2.23v12.34Z" style="fill:#231f20; stroke-width:0px;"/><path d="m62.62,42.03h-3.09v9.89h-2.88v-9.89h-3.13v-2.45h9.1v2.45Z" style="fill:#231f20; stroke-width:0px;"/><path d="m67.04,51.92h-2.88v-12.34h5.2c1.1,0,2.21.02,3.16.63,1.01.66,1.56,1.87,1.56,3.07,0,1.4-.81,2.7-2.14,3.18l2.29,5.45h-3.2l-1.89-4.87h-2.1v4.87Zm0-7h1.58c.59,0,1.24.05,1.76-.25.47-.29.72-.86.72-1.4,0-.48-.29-1.01-.7-1.26-.48-.31-1.31-.23-1.85-.23h-1.51v3.15Z" style="fill:#231f20; stroke-width:0px;"/><path d="m78.85,41.98v2.5h4.67v2.32h-4.67v2.73h5.93v2.39h-8.81v-12.34h8.81v2.39h-5.93Z" style="fill:#231f20; stroke-width:0px;"/><path d="m92.64,43.11c-.36-1.04-1.02-1.46-2.12-1.46-.77,0-1.71.2-1.71,1.15,0,.9,1.08,1.11,1.78,1.24,1.01.22,2.36.47,3.22,1.04,1.01.67,1.62,1.69,1.62,2.92s-.58,2.35-1.53,3.09c-.99.77-2.34,1.01-3.58,1.01-2.32,0-4.42-1.01-4.98-3.42l2.66-.61c.36,1.3,1.29,1.74,2.57,1.74.83,0,1.92-.31,1.92-1.33s-1.4-1.22-2.15-1.39c-2.2-.45-4.35-1.1-4.35-3.79,0-1.15.45-2.16,1.33-2.89.9-.76,1.96-1.01,3.09-1.01,2.16,0,3.92.76,4.68,2.9l-2.45.81Z" style="fill:#231f20; stroke-width:0px;"/><path d="m123.73,42.03h-3.1v9.89h-2.88v-9.89h-3.13v-2.45h9.1v2.45Z" style="fill:#fff; stroke-width:0px;"/><path d="m134.89,47.05c0,1.35.02,2.75-1.01,3.76-.99.99-2.45,1.3-3.79,1.3s-2.79-.2-3.78-1.06c-1.22-1.06-1.28-2.48-1.28-3.99v-7.47h3.12v7.47c0,.57-.02,1.4.27,1.91.38.65,1.15.83,1.85.83.58,0,1.42-.18,1.78-.67.4-.56.34-1.42.34-2.07v-7.47h2.48v7.47Z" style="fill:#fff; stroke-width:0px;"/><path d="m140.62,39.58c1.78,0,3.31.11,4.66,1.39,1.33,1.26,1.91,2.97,1.91,4.75,0,1.66-.5,3.25-1.6,4.5-1.22,1.35-2.73,1.71-4.48,1.71h-4.06v-12.34h3.58Zm-.7,10.02h.97c1.21,0,1.98-.23,2.65-1.31.49-.8.68-1.75.68-2.66,0-.97-.29-2.01-.88-2.79-.67-.86-1.4-.99-2.43-.99h-.99v7.75Z" style="fill:#fff; stroke-width:0px;"/><path d="m151.88,51.92h-2.88v-12.34h2.88v12.34Z" style="fill:#fff; stroke-width:0px;"/><path d="m164.5,51.92h-3.11l-.75-2.54h-4l-.77,2.54h-2.54l3.96-12.34h3.35l3.87,12.34Zm-4.53-4.8l-1.31-4.33-1.31,4.33h2.63Z" style="fill:#fff; stroke-width:0px;"/><path d="m175.34,51.92h-2.47l-4.73-8.29h-.07v8.29h-2.23v-12.34h3.11l4.12,7.25h.04v-7.25h2.23v12.34Z" style="fill:#fff; stroke-width:0px;"/><path d="m185.93,42.03h-3.09v9.89h-2.87v-9.89h-3.13v-2.45h9.1v2.45Z" style="fill:#fff; stroke-width:0px;"/><path d="m193.66,43.11c-.36-1.04-1.02-1.46-2.12-1.46-.77,0-1.71.2-1.71,1.15,0,.9,1.08,1.11,1.78,1.24,1.01.22,2.36.47,3.22,1.04,1,.67,1.62,1.69,1.62,2.92s-.58,2.35-1.53,3.09c-.99.77-2.34,1.01-3.58,1.01-2.32,0-4.42-1.01-4.98-3.42l2.66-.61c.36,1.3,1.29,1.74,2.57,1.74.83,0,1.93-.31,1.93-1.33s-1.4-1.22-2.16-1.39c-2.2-.45-4.35-1.1-4.35-3.79,0-1.15.45-2.16,1.33-2.89.9-.76,1.96-1.01,3.09-1.01,2.16,0,3.92.76,4.68,2.9l-2.45.81Z" style="fill:#fff; stroke-width:0px;"/><path d="m107.96,41.98v2.5h4.68v2.32h-4.68v2.73h5.93v2.39h-8.81v-12.34h8.81v2.39h-5.93Z" style="fill:#fff; stroke-width:0px;"/><path d="m112.04,36.32l-2.48,2.41h-1.68l1.56-2.41h2.59Z" style="fill:#fff; stroke-width:0px;"/><path d="m101.38,16.44v1.85l-5.16.03-5.09.11-5.01.18-4.94.25-4.84.32-4.75.38-4.65.44-4.55.51-4.43.57-4.32.63-4.19.68-4.06.74-3.92.79-3.77.84-3.63.89-3.47.94-3.3.98-3.14,1.02-2.95,1.06-2.77,1.1-2.58,1.14-2.38,1.17-2.18,1.2-1.97,1.23-1.75,1.25-1.52,1.27-1.29,1.29-1.06,1.29-.82,1.3-.59,1.3-.34,1.29-.12,1.3H0l.15-1.63.43-1.59.69-1.55.95-1.5,1.19-1.46,1.42-1.41,1.64-1.37,1.85-1.33,2.06-1.29,2.26-1.25,2.46-1.21,2.65-1.17,2.83-1.12,3.01-1.08,3.18-1.04,3.35-.99,3.51-.94,3.66-.9,3.82-.85,3.95-.8,4.09-.74,4.22-.69,4.34-.63,4.46-.57,4.57-.51,4.68-.45,4.78-.38,4.87-.32,4.96-.25,5.04-.18,5.11-.11,5.18-.04ZM0,45.78h1.85l.12,1.3.34,1.3.59,1.3.82,1.3,1.06,1.29,1.29,1.29,1.52,1.27,1.75,1.25,1.97,1.23,2.18,1.2,2.38,1.17,2.58,1.14,2.77,1.1,2.95,1.06,3.14,1.02,3.3.98,3.47.94,3.63.89,3.77.84,3.92.79,4.06.74,4.19.68,4.32.63,4.43.57,4.55.51,4.65.44,4.75.38,4.84.32,4.94.25,5.01.18,5.09.11,5.16.03v1.85l-5.18-.04-5.11-.11-5.04-.18-4.96-.25-4.87-.32-4.78-.38-4.68-.45-4.57-.51-4.46-.57-4.34-.63-4.22-.69-4.09-.74-3.95-.8-3.82-.85-3.66-.9-3.51-.95-3.35-.99-3.18-1.04-3.01-1.08-2.83-1.12-2.65-1.17-2.46-1.21-2.26-1.25-2.06-1.29-1.85-1.33-1.64-1.37-1.42-1.41-1.19-1.46-.95-1.5-.69-1.55-.43-1.59L0,45.78Zm101.37,29.34v-1.85l5.16-.03,5.09-.11,5.01-.18,4.93-.25,4.85-.32,4.75-.38,4.65-.44,4.55-.51,4.43-.57,4.32-.63,4.19-.68,4.06-.74,3.92-.79,3.77-.84,3.63-.89,3.47-.94,3.3-.98,3.14-1.02,2.95-1.06,2.77-1.1,2.58-1.14,2.38-1.17,2.18-1.2,1.97-1.23,1.75-1.25,1.52-1.27,1.29-1.29,1.06-1.29.82-1.3.58-1.3.35-1.3.12-1.3h1.85l-.14,1.62-.43,1.59-.69,1.55-.95,1.5-1.19,1.46-1.42,1.41-1.64,1.37-1.85,1.33-2.06,1.29-2.26,1.25-2.46,1.21-2.65,1.17-2.83,1.12-3.01,1.08-3.18,1.04-3.35.99-3.51.95-3.66.9-3.82.85-3.95.8-4.09.74-4.22.69-4.35.63-4.46.57-4.58.51-4.68.45-4.78.38-4.87.32-4.96.25-5.04.18-5.11.11-5.18.04Zm101.37-29.34h-1.85l-.12-1.3-.35-1.29-.58-1.3-.82-1.3-1.06-1.29-1.29-1.29-1.52-1.27-1.75-1.25-1.97-1.23-2.18-1.2-2.38-1.17-2.58-1.14-2.77-1.1-2.95-1.06-3.14-1.02-3.3-.98-3.47-.94-3.63-.89-3.77-.84-3.92-.79-4.06-.74-4.19-.68-4.32-.63-4.43-.57-4.55-.51-4.65-.44-4.75-.38-4.85-.32-4.93-.25-5.01-.18-5.09-.11-5.16-.03v-1.85l5.18.04,5.11.11,5.04.18,4.96.25,4.87.32,4.78.38,4.68.45,4.58.51,4.46.57,4.35.63,4.22.69,4.09.74,3.95.8,3.82.85,3.66.9,3.51.94,3.35.99,3.18,1.04,3.01,1.08,2.83,1.12,2.65,1.17,2.46,1.21,2.26,1.25,2.06,1.29,1.85,1.33,1.64,1.37,1.42,1.41,1.19,1.46.95,1.5.69,1.55.43,1.59.14,1.63Z" style="fill:#231f20; stroke-width:0px;"/><path d="m100.9,1.15c7.44,0,13.47,6.06,13.47,13.54s-6.03,13.54-13.47,13.54-13.47-6.06-13.47-13.54,6.03-13.54,13.47-13.54" style="fill:#fff; fill-rule:evenodd; stroke-width:0px;"/><path d="m100.9.31v1.67h-.65s-.64.06-.64.06l-.63.08-.62.11-.61.14-.59.17-.58.2-.57.23-.56.25-.54.28-.53.3-.51.33-.49.35-.47.38-.46.4-.44.42-.41.44-.4.46-.38.48-.35.5-.33.52-.3.53-.28.55-.25.56-.23.58-.2.59-.17.6-.14.62-.11.63-.08.64-.05.65v.66h-1.8l.02-.74.06-.73.09-.72.13-.71.16-.69.19-.68.22-.67.26-.65.29-.64.32-.62.34-.6.37-.58.4-.56.42-.54.45-.52.48-.5.5-.48.52-.45.54-.43.56-.4.58-.37.6-.35.62-.32.64-.29.65-.26.67-.23.68-.2.7-.16.71-.13.72-.09.73-.06.74-.02Zm-14.36,14.38h1.78v.66s.06.65.06.65l.08.64.11.63.14.62.17.6.2.59.23.58.25.56.28.55.3.53.33.52.35.5.38.48.4.46.41.44.44.42.46.4.47.38.49.35.51.33.53.3.54.28.56.25.57.23.58.2.59.17.61.14.62.11.63.08.64.05h.65v1.69l-.74-.02-.73-.05-.72-.09-.71-.13-.7-.16-.68-.2-.67-.23-.65-.26-.64-.29-.62-.32-.6-.35-.58-.37-.56-.4-.54-.43-.52-.45-.5-.48-.48-.5-.45-.52-.42-.54-.4-.56-.37-.58-.34-.6-.32-.62-.29-.64-.26-.65-.22-.67-.19-.68-.16-.69-.13-.71-.09-.72-.06-.73-.02-.74Zm14.36,14.38v-1.67h.65s.63-.06.63-.06l.63-.08.62-.11.61-.14.59-.17.58-.2.57-.23.55-.25.54-.28.53-.3.51-.33.49-.35.47-.38.46-.4.44-.42.41-.44.4-.46.38-.48.35-.5.33-.52.3-.53.28-.55.25-.56.23-.58.2-.59.17-.6.14-.62.11-.63.08-.64.05-.65v-.66h1.8l-.02.74-.06.73-.09.72-.13.71-.16.69-.19.68-.22.67-.26.65-.29.64-.32.62-.34.6-.37.58-.4.56-.42.54-.45.52-.48.5-.5.48-.52.45-.54.43-.56.4-.58.37-.6.35-.62.32-.64.29-.65.26-.67.23-.69.2-.7.16-.71.13-.72.09-.73.05-.74.02Zm14.36-14.38h-1.78v-.66s-.06-.65-.06-.65l-.08-.64-.11-.63-.14-.62-.17-.6-.2-.59-.23-.58-.25-.56-.28-.55-.3-.53-.33-.52-.35-.5-.38-.48-.4-.46-.41-.44-.44-.42-.46-.4-.47-.38-.49-.35-.51-.33-.53-.3-.54-.28-.55-.25-.57-.23-.58-.2-.59-.17-.61-.14-.62-.11-.63-.08-.63-.05h-.65V.31l.74.02.73.06.72.09.71.13.7.16.69.2.67.23.65.26.64.29.62.32.6.35.58.37.56.4.54.43.52.45.5.48.48.5.45.52.42.54.4.56.37.58.34.6.32.62.29.64.26.65.22.67.19.68.16.69.13.71.09.72.06.73.02.74Z" style="fill:#231f20; stroke-width:0px;"/><path d="m100.66,4.4c.54.11.81.49,1.05.85.24.36.34.47.47.93.13.45.4,2.15.37,2.85-.03.7-.13,1.08-.2,1.38-.07.3-.64,1.43-.7,1.6-.07.17-.23.85.1,1.28.33.43.94.93,1.41,1.28.47.36,1.51.89,1.51.89v.64s-4.06,0-4.06,0h.08-4.05v-.65s1.04-.53,1.51-.89c.47-.36,1.07-.85,1.41-1.28.34-.43.17-1.11.1-1.28-.07-.17-.63-1.31-.7-1.61-.07-.3-.17-.68-.2-1.38-.03-.7.24-2.4.37-2.85.13-.45.24-.57.47-.92.23-.36.54-.73,1.07-.85h0Z" style="fill:#231f20; stroke-width:0px;"/><polygon points="100.59 18.28 104.68 18.29 104.68 16.35 100.59 16.35 100.67 16.35 96.59 16.34 96.59 18.28 100.67 18.28 100.59 18.28" style="fill:#e31937; stroke-width:0px;"/><path d="m101.15,6.87c0,.23-.2.42-.45.42s-.44-.19-.44-.42c0-.23.2-.42.45-.42.25,0,.45.19.45.42Z" style="fill:#fff; stroke-width:0px;"/><path d="m106.1,23.49c-.56-1.15-1.03-2.13-1.37-5h-8.18c.18,1.95.42,3.22,1.12,4.98,2.76.02,5.66,0,8.42.02Z" style="fill:#231f20; fill-rule:evenodd; stroke-width:0px;"/></svg>