<?xml version="1.0" encoding="UTF-8"?>
<svg xmlns="http://www.w3.org/2000/svg" width="131" height="131" viewBox="0 0 131 131">
  <g id="Group_827" data-name="Group 827" transform="translate(-1236 -1380)">
    <circle id="Ellipse_5" data-name="Ellipse 5" cx="65.5" cy="65.5" r="65.5" transform="translate(1236 1380)" fill="#e52027"></circle>
    <g id="Group_445" data-name="Group 445" transform="translate(1266.734 1408.889)">
      <line id="Line_2" data-name="Line 2" x1="5.069" transform="translate(39.983 37.462)" fill="none" stroke="#fff" stroke-linecap="round" stroke-linejoin="round" stroke-width="2"></line>
      <path id="Path_121" data-name="Path 121" d="M2376.75,2721.235c-5.356,9.671-16.051,16.563-23.748,19.585-10.368,4.07-19.337,3.627-19.337-4.352a13.748,13.748,0,0,1,3.616-8.447" transform="translate(-2333.665 -2683.723)" fill="none" stroke="#fff" stroke-linecap="round" stroke-linejoin="round" stroke-width="2"></path>
      <path id="Path_122" data-name="Path 122" d="M2376,2801v10.222a3.4,3.4,0,0,0,3.4,3.4h40.833a3.4,3.4,0,0,0,3.4-3.4V2794.5" transform="translate(-2366.995 -2741.406)" fill="none" stroke="#fff" stroke-linecap="round" stroke-linejoin="round" stroke-width="2"></path>
      <line id="Line_3" data-name="Line 3" y2="25.268" transform="translate(9.003 28.955)" fill="none" stroke="#fff" stroke-linecap="round" stroke-linejoin="round" stroke-width="2"></line>
      <path id="Path_123" data-name="Path 123" d="M2399.571,2681h-15.753a4.821,4.821,0,0,0-5.1,5.1v6.805a3.4,3.4,0,1,1-6.806.03V2681H2360" transform="translate(-2354.398 -2652.044)" fill="none" stroke="#fff" stroke-linecap="round" stroke-linejoin="round" stroke-width="2"></path>
      <path id="Path_124" data-name="Path 124" d="M2411.612,2568.267l27.207-22.829a2.5,2.5,0,0,1,3.52.308l6.631,7.9a2.5,2.5,0,0,1-.308,3.52l-13.406,11.248" transform="translate(-2395.034 -2544.853)" fill="none" stroke="#fff" stroke-linecap="round" stroke-linejoin="round" stroke-width="2"></path>
      <path id="Path_125" data-name="Path 125" d="M2571.848,2558.221l2.887-2.528a1.246,1.246,0,0,1,1.768.136l5.812,6.926a1.241,1.241,0,0,1,.113,1.433l-10.6,17.854a1.241,1.241,0,0,0,.113,1.433l3.193,3.806" transform="translate(-2521.035 -2553.147)" fill="none" stroke="#fff" stroke-linecap="round" stroke-linejoin="round" stroke-width="2"></path>
      <rect id="Rectangle_162" data-name="Rectangle 162" width="20.417" height="8.507" transform="matrix(0.643, 0.766, -0.766, 0.643, 57.353, 31.398)" fill="none" stroke="#fff" stroke-linecap="round" stroke-linejoin="round" stroke-width="2"></rect>
    </g>
  </g>
</svg>
