<?xml version="1.0" encoding="UTF-8"?>
<svg xmlns="http://www.w3.org/2000/svg" xmlns:xlink="http://www.w3.org/1999/xlink" width="131" height="131" viewBox="0 0 131 131">
  <defs>
    <clipPath id="clip-path">
      <rect id="Rectangle_271" data-name="Rectangle 271" width="76" height="78" transform="translate(0.413 0.111)" fill="none" stroke="#fff" stroke-width="1"></rect>
    </clipPath>
  </defs>
  <g id="Group_825" data-name="Group 825" transform="translate(-553 -1380)">
    <circle id="Ellipse_3" data-name="Ellipse 3" cx="65.5" cy="65.5" r="65.5" transform="translate(553 1380)" fill="#e52027"></circle>
    <g id="Group_793" data-name="Group 793" transform="translate(580.587 1403.889)">
      <g id="Group_792" data-name="Group 792" clip-path="url(#clip-path)">
        <path id="Path_172" data-name="Path 172" d="M39.42,43.723a6.964,6.964,0,0,0,6.605-6.605V22.256C46.025,16.8,35.249,14,29.513,14S13,16.8,13,22.256V37.118a6.964,6.964,0,0,0,6.605,6.605" transform="translate(8.466 9.118)" fill="none" stroke="#fff" stroke-linejoin="round" stroke-width="2"></path>
        <path id="Path_173" data-name="Path 173" d="M44.908,45.071c3.212,0,6.605-1.742,6.605-4.954V25.256c0-5.454-9.7-8.256-14.861-8.256-.51,0-1.067.028-1.651.083" transform="translate(22.794 11.071)" fill="none" stroke="#fff" stroke-linejoin="round" stroke-width="2"></path>
        <path id="Path_174" data-name="Path 174" d="M25.605,17.513a6.331,6.331,0,0,0,6.605-6.605v-3.3A6.331,6.331,0,0,0,25.605,1,6.331,6.331,0,0,0,19,7.605v3.3A6.331,6.331,0,0,0,25.605,17.513Z" transform="translate(12.374 0.651)" fill="none" stroke="#fff" stroke-linejoin="round" stroke-width="2"></path>
        <line id="Line_8" data-name="Line 8" y1="39" transform="translate(68.413 39.111)" fill="none" stroke="#fff" stroke-linejoin="round" stroke-width="2"></line>
        <line id="Line_9" data-name="Line 9" y1="44" transform="translate(47.413 34.111)" fill="none" stroke="#fff" stroke-linejoin="round" stroke-width="2"></line>
        <line id="Line_10" data-name="Line 10" y2="44" transform="translate(28.413 34.111)" fill="none" stroke="#fff" stroke-linejoin="round" stroke-width="2"></line>
        <line id="Line_11" data-name="Line 11" y2="27" transform="translate(37.413 51.111)" fill="none" stroke="#fff" stroke-linejoin="round" stroke-width="2"></line>
        <path id="Path_175" data-name="Path 175" d="M38.605,20.513a6.331,6.331,0,0,0,6.605-6.605v-3.3A6.331,6.331,0,0,0,38.605,4,6.331,6.331,0,0,0,32,10.605v3.3A6.331,6.331,0,0,0,38.605,20.513Z" transform="translate(20.84 2.605)" fill="none" stroke="#fff" stroke-linejoin="round" stroke-width="2"></path>
        <path id="Path_176" data-name="Path 176" d="M7.605,45.071C4.393,45.071,1,43.329,1,40.118V25.256C1,19.8,10.7,17,15.861,17c.51,0,1.067.028,1.651.083" transform="translate(0.651 11.071)" fill="none" stroke="#fff" stroke-linejoin="round" stroke-width="2"></path>
        <line id="Line_12" data-name="Line 12" y1="39" transform="translate(8.413 39.111)" fill="none" stroke="#fff" stroke-linejoin="round" stroke-width="2"></line>
        <path id="Path_177" data-name="Path 177" d="M12.605,20.513A6.331,6.331,0,0,1,6,13.908v-3.3A6.331,6.331,0,0,1,12.605,4a6.331,6.331,0,0,1,6.605,6.605v3.3A6.331,6.331,0,0,1,12.605,20.513Z" transform="translate(3.908 2.605)" fill="none" stroke="#fff" stroke-linejoin="round" stroke-width="2"></path>
      </g>
    </g>
  </g>
</svg>
